<svg id="Layer_1" data-name="Layer 1" xmlns="http://www.w3.org/2000/svg" viewBox="0 0 275.75 165.77"><defs><style>.cls-1{fill:#00ada9;}</style></defs><path class="cls-1" d="M7.82,38H24.07v88.65H50.82v14.78h-43Z" transform="translate(-4.73 -6.51)"/><path class="cls-1" d="M112.51,141.41H96.1l-2.81-18.77H73.35l-2.81,18.77H55.62L72.17,38H96ZM75.41,108.6H91.08L83.25,56.3Z" transform="translate(-4.73 -6.51)"/><path class="cls-1" d="M167.71,63.54V77c0,16.55-8,25.56-24.24,25.56h-7.68v38.87H119.54V38h23.93C159.73,38,167.71,47,167.71,63.54ZM135.79,52.75v35h7.68c5.18,0,8-2.36,8-9.75V62.5c0-7.39-2.81-9.75-8-9.75Z" transform="translate(-4.73 -6.51)"/><path class="cls-1" d="M174.12,62.8c0-16.55,8.72-26,24.68-26s24.67,9.46,24.67,26v53.78c0,16.55-8.72,26-24.67,26s-24.68-9.46-24.68-26Zm16.25,54.82c0,7.39,3.25,10.2,8.43,10.2s8.42-2.81,8.42-10.2V61.76c0-7.38-3.26-10.19-8.42-10.19s-8.43,2.81-8.43,10.19Z" transform="translate(-4.73 -6.51)"/><path class="cls-1" d="M280.39,63.54V77c0,16.55-8,25.56-24.24,25.56h-7.68v38.87H232.21V38h23.94C272.41,38,280.39,47,280.39,63.54ZM248.47,52.75v35h7.68c5.17,0,8-2.36,8-9.75V62.5c0-7.39-2.81-9.75-8-9.75Z" transform="translate(-4.73 -6.51)"/><rect class="cls-1" y="150.96" width="275.75" height="14.81"/><rect class="cls-1" width="275.75" height="14.81"/></svg>